<svg width="674" height="526" viewBox="0 0 674 526" fill="none" xmlns="http://www.w3.org/2000/svg">
<path d="M674 462.241H0V462.594H674V462.241Z" fill="#EBEBEB"/>
<path d="M319.476 399.272H59.1906C57.1515 399.268 55.1972 398.417 53.7566 396.906C52.316 395.395 51.507 393.346 51.507 391.211V7.99109C51.5247 5.8677 52.3416 3.83739 53.7803 2.34116C55.2189 0.844935 57.1631 0.00363748 59.1906 0H319.476C321.517 0 323.475 0.849354 324.919 2.36121C326.362 3.87307 327.173 5.92359 327.173 8.06168V391.211C327.173 393.349 326.362 395.399 324.919 396.911C323.475 398.423 321.517 399.272 319.476 399.272ZM59.1906 0.282372C57.2409 0.286112 55.3723 1.09993 53.9949 2.54519C52.6175 3.99045 51.844 5.94906 51.844 7.99109V391.211C51.844 393.253 52.6175 395.211 53.9949 396.656C55.3723 398.102 57.2409 398.915 59.1906 398.919H319.476C321.427 398.915 323.297 398.102 324.676 396.657C326.056 395.212 326.832 393.254 326.836 391.211V7.99109C326.832 5.94776 326.056 3.98918 324.676 2.54432C323.297 1.09947 321.427 0.286104 319.476 0.282372H59.1906Z" fill="#EBEBEB"/>
<path d="M611.062 399.272H350.763C348.723 399.268 346.767 398.418 345.324 396.907C343.882 395.396 343.069 393.347 343.066 391.211V7.99109C343.087 5.86641 343.907 3.83611 345.348 2.34028C346.789 0.844442 348.734 0.00359781 350.763 0H611.062C613.087 0.00734799 615.028 0.850288 616.463 2.34612C617.899 3.84195 618.714 5.87014 618.732 7.99109V391.211C618.732 393.344 617.925 395.39 616.487 396.901C615.049 398.412 613.099 399.265 611.062 399.272ZM350.763 0.282372C348.812 0.286104 346.942 1.09947 345.563 2.54432C344.183 3.98918 343.406 5.94776 343.403 7.99109V391.211C343.406 393.254 344.183 395.212 345.563 396.657C346.942 398.102 348.812 398.915 350.763 398.919H611.062C613.013 398.915 614.883 398.102 616.262 396.657C617.642 395.212 618.418 393.254 618.422 391.211V7.99109C618.418 5.94776 617.642 3.98918 616.262 2.54432C614.883 1.09947 613.013 0.286104 611.062 0.282372H350.763Z" fill="#EBEBEB"/>
<path d="M270.193 475.682H235.145V476.035H270.193V475.682Z" fill="#EBEBEB"/>
<path d="M143.643 471.855H70.7162V472.208H143.643V471.855Z" fill="#EBEBEB"/>
<path d="M233.797 488.798H198.318V489.151H233.797V488.798Z" fill="#EBEBEB"/>
<path d="M400.437 486.426H348.094V486.779H400.437V486.426Z" fill="#EBEBEB"/>
<path d="M426.844 486.426H412.434V486.779H426.844V486.426Z" fill="#EBEBEB"/>
<path d="M606.479 480.468H532.932V480.821H606.479V480.468Z" fill="#EBEBEB"/>
<path d="M303.704 51.1794H103.688V272.247H303.704V51.1794Z" fill="#E6E6E6"/>
<path d="M325.151 44.0215H90.7474C90.2182 44.0215 89.7108 44.2416 89.3367 44.6335C88.9625 45.0254 88.7523 45.5569 88.7523 46.111C88.7523 46.3848 88.804 46.6558 88.9044 46.9085C89.0049 47.1613 89.152 47.3907 89.3375 47.5836C89.5229 47.7765 89.7429 47.9291 89.9849 48.0325C90.2269 48.136 90.486 48.1883 90.7474 48.1864H325.151C325.677 48.1864 326.181 47.9678 326.552 47.5786C326.924 47.1894 327.133 46.6615 327.133 46.111C327.134 45.8373 327.084 45.5659 326.986 45.3125C326.887 45.059 326.741 44.8286 326.557 44.6343C326.373 44.4401 326.154 44.286 325.913 44.1808C325.671 44.0756 325.412 44.0215 325.151 44.0215Z" fill="#E6E6E6"/>
<path d="M312.21 51.1794H107.665V272.247H312.21V51.1794Z" fill="#F0F0F0"/>
<path d="M303.704 272.248H103.688V280.507H303.704V272.248Z" fill="#E6E6E6"/>
<path d="M326.337 272.248H121.792V280.507H326.337V272.248Z" fill="#F0F0F0"/>
<path d="M300.321 259.81V63.6326L119.541 63.6326V259.81H300.321Z" fill="#FAFAFA"/>
<path d="M160.574 259.809L230.319 63.6179H263.238L193.505 259.809H160.574Z" fill="white"/>
<path d="M200.569 259.809L270.314 63.6179H283.147L213.402 259.809H200.569Z" fill="white"/>
<path d="M300.321 259.795V63.6179H298.811V259.795H300.321Z" fill="#E6E6E6"/>
<g opacity="0.6">
<path d="M114.634 239.987H89.5208L103.055 40.3081H128.168L114.634 239.987Z" fill="#F0F0F0"/>
<path d="M124.421 239.987H104.848L118.381 40.3081H137.954L124.421 239.987Z" fill="#E6E6E6"/>
<path d="M139.747 239.987H114.634L128.168 40.3081H153.281L139.747 239.987Z" fill="#F0F0F0"/>
<path d="M149.534 239.987H129.961L143.508 40.3081H163.068L149.534 239.987Z" fill="#E6E6E6"/>
<path d="M164.861 239.987H139.747L153.281 40.3081H178.408L164.861 239.987Z" fill="#F0F0F0"/>
</g>
<g opacity="0.6">
<path d="M308.058 239.987H322.253L314.61 40.3081H300.415L308.058 239.987Z" fill="#F0F0F0"/>
<path d="M302.532 239.987H313.585L305.942 40.3081H294.875L302.532 239.987Z" fill="#E6E6E6"/>
<path d="M293.864 239.987H308.058L300.415 40.3081H286.221L293.864 239.987Z" fill="#F0F0F0"/>
<path d="M288.337 239.987H299.391L291.747 40.3081H280.68L288.337 239.987Z" fill="#E6E6E6"/>
<path d="M279.67 239.987H293.864L286.221 40.3081H272.026L279.67 239.987Z" fill="#F0F0F0"/>
</g>
<path d="M575.138 40.3081H436.819V232.913H575.138V40.3081Z" fill="#E6E6E6"/>
<path d="M585.639 40.3081H441.133V232.913H585.639V40.3081Z" fill="#F5F5F5"/>
<path d="M459.855 48.172L446.993 214.877L566.898 225.025L579.76 58.3204L459.855 48.172Z" fill="white"/>
<path d="M576.796 58.068L563.934 224.773L566.89 225.023L579.752 58.3181L576.796 58.068Z" fill="#E6E6E6"/>
<path d="M593.268 304.862H516.014V462.241H593.268V304.862Z" fill="#F5F5F5"/>
<path d="M593.268 304.862H586.892V462.241H593.268V304.862Z" fill="#F0F0F0"/>
<path d="M344.09 375.934H521.973V309.337H344.09V375.934Z" fill="#E6E6E6"/>
<path d="M352.65 316.65L593.255 316.65V304.847L352.65 304.847V316.65Z" fill="#F0F0F0"/>
<path d="M352.664 304.862H275.41V462.241H352.664V304.862Z" fill="#F5F5F5"/>
<path d="M278.2 354.996H278.551C283.481 354.996 288.209 357.048 291.695 360.699C295.181 364.35 297.14 369.302 297.14 374.466V462.241H259.611V374.466C259.611 369.302 261.57 364.35 265.056 360.699C268.542 357.048 273.27 354.996 278.2 354.996Z" fill="#E6E6E6"/>
<path d="M352.664 304.862H346.288V462.241H352.664V304.862Z" fill="#F0F0F0"/>
<path d="M439.61 304.861H422.948L426.992 270.878H443.667L439.61 304.861Z" fill="#F0F0F0"/>
<path d="M443.303 304.861H426.628L430.686 270.878H447.347L443.303 304.861Z" fill="#F5F5F5"/>
<path d="M445.325 287.863H428.664L430.686 270.878H447.347L445.325 287.863Z" fill="#F0F0F0"/>
<path d="M384.086 283.783H501.982C502.213 283.782 502.442 283.731 502.652 283.631C502.863 283.532 503.051 283.386 503.204 283.205C503.357 283.023 503.471 282.809 503.54 282.578C503.608 282.347 503.628 282.103 503.599 281.862L494.514 205.735C494.465 205.322 494.273 204.942 493.975 204.667C493.677 204.391 493.294 204.239 492.896 204.239H375C374.773 204.243 374.55 204.297 374.344 204.397C374.138 204.496 373.954 204.639 373.803 204.817C373.652 204.995 373.538 205.203 373.468 205.429C373.398 205.655 373.374 205.894 373.396 206.131L382.455 282.371C382.525 282.769 382.726 283.13 383.025 283.388C383.323 283.646 383.699 283.786 384.086 283.783Z" fill="#F0F0F0"/>
<path d="M385.838 283.783H503.734C503.965 283.782 504.194 283.731 504.405 283.631C504.615 283.532 504.803 283.386 504.956 283.205C505.109 283.023 505.224 282.809 505.292 282.578C505.36 282.347 505.38 282.103 505.352 281.862L496.266 205.735C496.217 205.322 496.025 204.942 495.728 204.667C495.43 204.391 495.046 204.239 494.649 204.239H376.753C376.521 204.239 376.292 204.291 376.081 204.39C375.869 204.49 375.68 204.635 375.526 204.816C375.373 204.998 375.257 205.211 375.187 205.442C375.117 205.674 375.095 205.918 375.121 206.159L384.18 282.371C384.251 282.774 384.456 283.138 384.76 283.397C385.064 283.656 385.446 283.793 385.838 283.783Z" fill="#F5F5F5"/>
<path d="M501.55 279.547L493.045 208.291C493.028 208.176 492.973 208.072 492.889 207.996C492.804 207.921 492.697 207.88 492.586 207.882H379.354C379.289 207.881 379.225 207.895 379.165 207.923C379.106 207.95 379.053 207.991 379.009 208.042C378.966 208.092 378.934 208.152 378.914 208.217C378.894 208.282 378.888 208.35 378.896 208.418L387.402 279.674C387.418 279.789 387.473 279.894 387.558 279.969C387.642 280.044 387.749 280.085 387.86 280.084H501.092C501.157 280.084 501.221 280.07 501.281 280.043C501.34 280.015 501.394 279.975 501.437 279.924C501.48 279.873 501.513 279.813 501.532 279.748C501.552 279.683 501.558 279.615 501.55 279.547Z" fill="#E6E6E6"/>
<path d="M489.472 280.14L459.547 207.923H433.301L463.227 280.14H489.472Z" fill="#EBEBEB"/>
<path d="M458.172 280.14L428.246 207.923H418.797L448.722 280.14H458.172Z" fill="#EBEBEB"/>
<path d="M458.428 304.862H431.279V304.509C431.279 303.76 431.563 303.042 432.069 302.512C432.574 301.983 433.26 301.685 433.975 301.685H455.732C456.447 301.685 457.132 301.983 457.638 302.512C458.144 303.042 458.428 303.76 458.428 304.509V304.862Z" fill="#F5F5F5"/>
<path d="M434.46 304.862H416.047V304.509C416.047 303.76 416.331 303.042 416.836 302.512C417.342 301.983 418.028 301.685 418.743 301.685H431.751C432.466 301.685 433.152 301.983 433.657 302.512C434.163 303.042 434.447 303.76 434.447 304.509V304.862H434.46Z" fill="#F0F0F0"/>
<path d="M488.461 304.861H404.535L402.27 297.802H477.542L488.461 304.861Z" fill="#F5F5F5"/>
<path d="M413.769 304.861H399.898L398.024 297.802H411.895L413.769 304.861Z" fill="#F0F0F0"/>
<path d="M387.065 304.848H363.178C363.178 303.282 363.772 301.781 364.828 300.675C365.885 299.568 367.318 298.946 368.813 298.946H381.43C382.924 298.946 384.358 299.568 385.414 300.675C386.471 301.781 387.065 303.282 387.065 304.848Z" fill="#F0F0F0"/>
<path d="M120.268 462.241H143.683V348.262H120.268L120.268 462.241Z" fill="#E0E0E0"/>
<path d="M224.226 462.241H129.57L117.869 327.55H212.526L224.226 462.241Z" fill="#E6E6E6"/>
<path d="M229.133 462.241H134.476L122.762 327.55H217.432L229.133 462.241Z" fill="#F0F0F0"/>
<path d="M147.417 447.332L138.291 342.459H204.492L213.604 447.332H147.417Z" fill="white"/>
<path d="M337 526C481.347 526 598.364 518.845 598.364 510.018C598.364 501.191 481.347 494.036 337 494.036C192.653 494.036 75.6362 501.191 75.6362 510.018C75.6362 518.845 192.653 526 337 526Z" fill="#F5F5F5"/>
<path d="M133.55 172.24L132.203 172.286L132.789 191.096L134.137 191.05L133.55 172.24Z" fill="#255369"/>
<path d="M133.045 156.006L131.698 156.052L131.977 164.999L133.324 164.953L133.045 156.006Z" fill="#255369"/>
<path d="M151.246 292.07H408.525C409.9 292.077 411.262 291.792 412.53 291.233C413.797 290.673 414.943 289.851 415.899 288.816C416.855 287.78 417.601 286.553 418.092 285.207C418.583 283.862 418.809 282.426 418.756 280.987L413.027 97.1213C412.913 94.1592 411.716 91.3565 409.683 89.2934C407.651 87.2303 404.939 86.0648 402.108 86.0382H144.829C143.453 86.0315 142.09 86.3163 140.822 86.8754C139.554 87.4345 138.407 88.2564 137.45 89.2917C136.493 90.327 135.746 91.5543 135.254 92.8998C134.761 94.2453 134.533 95.6812 134.584 97.1213L140.313 280.959C140.424 283.927 141.621 286.737 143.657 288.806C145.692 290.874 148.41 292.043 151.246 292.07Z" fill="#255369"/>
<path d="M152.068 292.07H409.347C410.723 292.077 412.086 291.792 413.354 291.233C414.622 290.674 415.769 289.852 416.726 288.816C417.683 287.781 418.43 286.554 418.923 285.208C419.415 283.863 419.643 282.427 419.592 280.987L413.836 97.1213C413.719 94.1579 412.519 91.3552 410.484 89.2924C408.449 87.2296 405.736 86.0646 402.904 86.0382H145.652C144.276 86.0314 142.914 86.3162 141.647 86.8755C140.379 87.4348 139.233 88.2569 138.277 89.2925C137.321 90.328 136.576 91.5554 136.085 92.9009C135.593 94.2463 135.368 95.6819 135.42 97.1213L141.149 280.959C141.257 283.926 142.451 286.736 144.484 288.805C146.517 290.874 149.233 292.043 152.068 292.07Z" fill="#255369"/>
<path opacity="0.5" d="M152.068 292.07H409.347C410.723 292.077 412.086 291.792 413.354 291.233C414.622 290.674 415.769 289.852 416.726 288.816C417.683 287.781 418.43 286.554 418.923 285.208C419.415 283.863 419.643 282.427 419.592 280.987L413.836 97.1213C413.719 94.1579 412.519 91.3552 410.484 89.2924C408.449 87.2296 405.736 86.0646 402.904 86.0382H145.652C144.276 86.0314 142.914 86.3162 141.647 86.8755C140.379 87.4348 139.233 88.2569 138.277 89.2925C137.321 90.328 136.576 91.5554 136.085 92.9009C135.593 94.2463 135.368 95.6819 135.42 97.1213L141.149 280.959C141.257 283.926 142.451 286.736 144.484 288.805C146.517 290.874 149.233 292.043 152.068 292.07Z" fill="white"/>
<path opacity="0.5" d="M402.284 91.573H144.991H144.128C137.536 92.1377 138.48 102.614 145.126 102.614H402.85C409.482 102.614 409.778 92.1377 403.146 91.573C402.863 91.5871 402.567 91.573 402.284 91.573Z" fill="#255369"/>
<path d="M151.488 97.1215C151.499 97.4505 151.447 97.7784 151.333 98.0855C151.22 98.3926 151.049 98.6727 150.83 98.9087C150.611 99.1448 150.348 99.332 150.059 99.4592C149.769 99.5863 149.457 99.6508 149.143 99.6487C148.495 99.6457 147.873 99.3815 147.406 98.9109C146.939 98.4403 146.663 97.7995 146.636 97.1215C146.623 96.7913 146.674 96.4619 146.786 96.1531C146.899 95.8443 147.07 95.5626 147.289 95.325C147.508 95.0874 147.771 94.8989 148.062 94.7709C148.353 94.6428 148.666 94.578 148.981 94.5801C149.632 94.5798 150.258 94.8448 150.726 95.3191C151.194 95.7934 151.467 96.4398 151.488 97.1215Z" fill="#FAFAFA"/>
<path d="M159.738 97.1215C159.751 97.451 159.7 97.7798 159.587 98.0878C159.475 98.3958 159.303 98.6767 159.084 98.9131C158.865 99.1496 158.601 99.3368 158.311 99.4632C158.02 99.5897 157.707 99.6528 157.393 99.6487C156.746 99.6423 156.126 99.3769 155.659 98.907C155.193 98.4371 154.916 97.7983 154.885 97.1215C154.873 96.7913 154.924 96.4619 155.036 96.1531C155.149 95.8443 155.319 95.5626 155.539 95.325C155.758 95.0874 156.021 94.8989 156.312 94.7709C156.603 94.6428 156.915 94.578 157.231 94.5801C157.882 94.5798 158.508 94.8448 158.976 95.3191C159.444 95.7934 159.717 96.4398 159.738 97.1215Z" fill="#FAFAFA"/>
<path d="M167.333 98.9393C168.257 97.9551 168.218 96.3463 167.246 95.346C166.275 94.3456 164.738 94.3326 163.815 95.3168C162.891 96.301 162.93 97.9098 163.901 98.9101C164.873 99.9105 166.409 99.9235 167.333 98.9393Z" fill="#FAFAFA"/>
<path d="M157.056 273.716H403.228C403.726 273.72 404.22 273.618 404.679 273.417C405.139 273.215 405.555 272.918 405.901 272.543C406.248 272.168 406.518 271.723 406.696 271.236C406.873 270.748 406.955 270.228 406.935 269.706L402.217 118.483C402.162 117.413 401.723 116.405 400.988 115.662C400.253 114.918 399.276 114.493 398.253 114.473H152.095C151.597 114.469 151.103 114.571 150.643 114.772C150.184 114.974 149.768 115.271 149.421 115.646C149.075 116.021 148.804 116.466 148.627 116.953C148.449 117.441 148.368 117.961 148.388 118.483L153.093 269.664C153.137 270.741 153.572 271.759 154.308 272.512C155.044 273.265 156.027 273.695 157.056 273.716Z" fill="white"/>
<g opacity="0.3">
<path d="M337.714 255.009H333.212V253.668H336.393L336.286 250.336L337.566 250.294L337.714 255.009Z" fill="#255369"/>
<path d="M326.054 255.009H318.896V253.597H326.054V255.009ZM311.738 255.009H304.648V253.597H311.806L311.738 255.009ZM297.423 255.009H290.265V253.597H297.423V255.009ZM283.107 255.009H275.949V253.597H283.08L283.107 255.009ZM268.805 255.009H261.633V253.597H268.805V255.009ZM254.489 255.009H247.331V253.597H254.489V255.009ZM240.173 255.009H233.015V253.597H240.173V255.009Z" fill="#255369"/>
<path d="M225.857 255.009H221.396L221.261 250.336L222.528 250.294L222.636 253.668H225.857V255.009Z" fill="#255369"/>
<path d="M221.072 242.839L220.843 235.342H222.191L222.42 242.839H221.072ZM220.614 227.845L220.371 220.348H221.652L221.881 227.845H220.614ZM220.142 212.851L219.913 205.354H221.18L221.422 212.851H220.142ZM219.67 197.872L219.441 190.375H220.721L220.951 197.872H219.67ZM219.212 182.878L218.969 175.381H220.25L220.479 182.878H219.212ZM218.74 167.87L218.511 160.387H219.778L220.021 167.884L218.74 167.87ZM218.268 152.89L218.039 145.393H219.32L219.549 152.89H218.268Z" fill="#255369"/>
<path d="M217.756 137.882L217.608 133.181H222.097V134.522H218.929L219.023 137.84L217.756 137.882Z" fill="#255369"/>
<path d="M322.307 134.521H315.149V133.18H322.307V134.521ZM307.991 134.521H300.833V133.18H307.991V134.521ZM293.675 134.521H286.517V133.18H293.675V134.521ZM279.359 134.521H272.202V133.18H279.359V134.521ZM265.044 134.521H257.886V133.18H265.044V134.521ZM250.728 134.521H243.57V133.18H250.728V134.521ZM236.412 134.521H229.254V133.18H236.412V134.521Z" fill="#255369"/>
<path d="M332.781 137.882L332.673 134.521H329.465V133.18H333.913L334.061 137.839L332.781 137.882Z" fill="#255369"/>
<path d="M336.056 242.839L335.827 235.342H337.094L337.337 242.839H336.056ZM335.652 227.845L335.423 220.348H336.703L336.933 227.845H335.652ZM335.194 212.866L334.951 205.369H336.232L336.461 212.866H335.194ZM334.722 197.872L334.493 190.375H335.76L336.002 197.872H334.722ZM334.25 182.878L334.021 175.381H335.302L335.531 182.878H334.25ZM333.792 167.884L333.549 160.387H334.897L335.126 167.884H333.792ZM333.32 152.89L333.091 145.393H334.358L334.601 152.89H333.32Z" fill="#255369"/>
</g>
<path d="M303.058 213.19H255.999C251.634 213.154 247.451 211.359 244.316 208.178C241.181 204.997 239.335 200.674 239.162 196.106C239.009 192.002 240.319 187.985 242.839 184.838C245.358 181.69 248.906 179.638 252.791 179.079C253.809 175 256.092 171.391 259.28 168.818C262.469 166.245 266.384 164.853 270.409 164.862C273.722 164.867 276.979 165.767 279.864 167.473C282.749 169.179 285.166 171.635 286.882 174.604C288.361 174.123 289.902 173.881 291.451 173.884C295.465 173.923 299.327 175.5 302.307 178.317C305.287 181.134 307.18 184.996 307.627 189.174C309.683 190.203 311.434 191.797 312.692 193.786C313.951 195.775 314.669 198.085 314.772 200.469C314.834 202.118 314.576 203.763 314.015 205.305C313.453 206.848 312.599 208.255 311.505 209.442C310.41 210.629 309.098 211.572 307.646 212.214C306.194 212.856 304.633 213.183 303.058 213.176V213.19ZM270.409 168.152C266.911 168.13 263.516 169.387 260.809 171.707C258.102 174.026 256.253 177.263 255.581 180.858L255.352 182.115L254.139 182.2C250.836 182.411 247.743 183.969 245.524 186.539C243.304 189.109 242.133 192.488 242.263 195.951C242.401 199.667 243.902 203.185 246.453 205.772C249.003 208.359 252.408 209.818 255.958 209.844H303.017C304.17 209.854 305.313 209.619 306.376 209.153C307.44 208.687 308.401 207.999 309.203 207.132C310.005 206.264 310.63 205.235 311.041 204.107C311.451 202.978 311.638 201.774 311.59 200.568C311.505 198.648 310.886 196.797 309.811 195.24C308.736 193.682 307.251 192.487 305.538 191.8L304.567 191.405V190.318C304.396 186.784 302.943 183.451 300.506 181.001C298.068 178.55 294.83 177.166 291.451 177.131C289.843 177.127 288.249 177.453 286.76 178.091L285.412 178.656L284.752 177.329C283.39 174.575 281.332 172.265 278.803 170.652C276.274 169.039 273.37 168.184 270.409 168.18V168.152Z" fill="#255369"/>
<path d="M289.497 197.208L276.515 184.035L264.356 197.208H271.474L271.905 210.818H282.811L282.379 197.208H289.497Z" fill="#255369"/>
<path d="M494.716 143.727C495.956 145.605 496.954 147.186 497.978 148.937C499.003 150.687 499.973 152.381 500.917 154.146C502.804 157.648 504.557 161.206 506.161 164.933C507.812 168.65 509.27 172.458 510.528 176.341C511.871 180.325 512.935 184.407 513.71 188.553L514.222 191.772L514.289 192.182L514.37 192.69C514.37 193.184 514.478 193.608 514.491 194.102C514.519 194.657 514.519 195.213 514.491 195.768L514.424 196.657L514.276 197.646C514.162 198.347 513.991 199.036 513.764 199.707C513.516 200.452 513.2 201.171 512.82 201.853C512.063 203.235 511.05 204.445 509.841 205.411C508.06 206.829 505.971 207.76 503.761 208.121C502.309 208.37 500.835 208.446 499.367 208.347C498.168 208.289 496.974 208.143 495.795 207.91C493.711 207.49 491.654 206.938 489.634 206.258C485.943 204.962 482.34 203.406 478.85 201.599C475.408 199.86 472.068 197.909 468.848 195.754L472.73 186.746C479.427 188.642 486.212 190.178 493.058 191.349C494.571 191.588 496.098 191.725 497.628 191.758C498.606 191.846 499.591 191.731 500.526 191.419C500.607 191.349 500.297 191.25 499.407 191.871C498.669 192.436 498.106 193.217 497.79 194.116C497.705 194.336 497.638 194.562 497.588 194.794L497.507 195.245C497.511 195.325 497.511 195.405 497.507 195.485V195.302V195.005L496.9 192.633C494.946 186.006 492.41 179.583 489.324 173.446C487.801 170.256 486.13 167.107 484.431 163.987C483.582 162.42 482.706 160.881 481.829 159.342C480.953 157.803 480.01 156.193 479.228 154.909L494.716 143.727Z" fill="#FFB573"/>
<path d="M474.213 187.508L468.363 181.409L462.553 194.977C462.553 194.977 468.053 198.182 472.946 195.852L474.213 187.508Z" fill="#FFB573"/>
<path d="M459.722 176.538L455.408 188.003L462.539 194.977L468.363 181.409L459.722 176.538Z" fill="#FFB573"/>
<path d="M479.459 148.267L367.227 127.561L347.457 245.11L459.69 265.815L479.459 148.267Z" fill="#255369"/>
<path opacity="0.6" d="M479.459 148.267L367.227 127.561L347.457 245.11L459.69 265.815L479.459 148.267Z" fill="white"/>
<path d="M473.028 152.973L371.722 134.283L353.877 240.388L455.183 259.078L473.028 152.973Z" fill="white"/>
<path opacity="0.3" d="M419.404 188.494C427.995 182.191 430.082 169.786 424.063 160.788C418.045 151.789 406.202 149.604 397.61 155.907C389.018 162.211 386.932 174.615 392.95 183.614C398.969 192.612 410.812 194.797 419.404 188.494Z" fill="#255369"/>
<path opacity="0.2" d="M432.25 201.161L398.294 226.066L382.684 202.714L357.058 221.506L353.877 240.411L455.179 259.089L458.36 240.199L432.25 201.161Z" fill="#255369"/>
<path d="M437.817 100.962C437.817 101.908 437.385 102.684 436.792 102.698C436.199 102.713 435.714 101.95 435.7 101.018C435.687 100.087 436.145 99.2959 436.725 99.2959C437.305 99.2959 437.803 100.03 437.817 100.962Z" fill="#263238"/>
<path d="M437.466 102.67C436.449 105.564 435.061 108.299 433.342 110.802C433.964 111.246 434.67 111.543 435.413 111.672C436.155 111.801 436.916 111.76 437.642 111.55L437.466 102.67Z" fill="#FF5652"/>
<path d="M440.985 95.6813C440.845 95.7103 440.699 95.6799 440.58 95.5966C440.053 95.1776 439.436 94.9006 438.782 94.7898C438.129 94.679 437.46 94.7379 436.833 94.9613C436.703 95.0175 436.556 95.017 436.426 94.9601C436.296 94.9032 436.192 94.7944 436.139 94.6577C436.085 94.5211 436.086 94.3677 436.14 94.2313C436.194 94.095 436.298 93.9868 436.429 93.9306C437.223 93.654 438.068 93.5788 438.896 93.7113C439.723 93.8439 440.508 94.1804 441.187 94.693C441.301 94.7758 441.379 94.9024 441.404 95.0452C441.43 95.188 441.4 95.3354 441.322 95.4554C441.241 95.5732 441.121 95.6541 440.985 95.6813Z" fill="#263238"/>
<path d="M463.807 104.548C463.24 113.216 463.887 130.709 470.21 135.608C470.21 135.608 468.659 142.668 453.656 144.658C437.17 146.819 444.746 137.119 444.746 137.119C453.481 133.674 452.416 126.714 450.057 120.346L463.807 104.548Z" fill="#FFB573"/>
<path d="M504.678 479.423H504.583C504.384 479.314 504.223 479.143 504.121 478.932C504.02 478.722 503.983 478.484 504.017 478.251C504.021 478.066 504.064 477.884 504.144 477.718C504.223 477.552 504.336 477.406 504.476 477.291C505.743 476.162 509.436 476.656 509.598 476.67C509.648 476.68 509.694 476.704 509.732 476.738C509.769 476.773 509.798 476.818 509.814 476.868C509.828 476.918 509.828 476.972 509.814 477.022C509.799 477.072 509.771 477.117 509.733 477.15C508.87 477.884 506.012 479.903 504.678 479.423ZM508.897 477.108C507.643 477.009 505.568 476.995 504.853 477.658C504.772 477.727 504.706 477.813 504.66 477.91C504.613 478.008 504.587 478.114 504.583 478.223C504.583 478.746 504.772 478.844 504.84 478.887C505.5 479.24 507.536 478.167 508.897 477.108Z" fill="#255369"/>
<path d="M507.697 476.755C506.349 476.289 505.001 475.484 504.799 474.666C504.746 474.466 504.76 474.253 504.838 474.063C504.917 473.873 505.055 473.717 505.231 473.621C505.396 473.502 505.584 473.422 505.782 473.386C505.979 473.349 506.182 473.357 506.376 473.409C508.007 473.762 509.706 476.642 509.787 476.755C509.813 476.797 509.828 476.846 509.828 476.896C509.828 476.947 509.813 476.996 509.787 477.037C509.766 477.082 509.733 477.119 509.692 477.144C509.652 477.169 509.605 477.181 509.558 477.179C508.922 477.129 508.296 476.986 507.697 476.755ZM506.457 474.002H506.269C506.143 473.967 506.011 473.962 505.883 473.986C505.755 474.011 505.633 474.064 505.527 474.143C505.244 474.341 505.284 474.496 505.298 474.567C505.514 475.315 507.617 476.36 509.032 476.628C508.413 475.528 507.524 474.621 506.457 474.002Z" fill="#255369"/>
<path d="M422.827 498.723C421.398 498.723 420.023 498.512 419.552 497.848C419.433 497.67 419.369 497.458 419.369 497.241C419.369 497.024 419.433 496.812 419.552 496.634C419.644 496.476 419.766 496.338 419.909 496.229C420.053 496.12 420.215 496.042 420.387 495.999C422.234 495.462 426.13 497.777 426.292 497.876C426.338 497.907 426.375 497.952 426.397 498.005C426.418 498.058 426.424 498.116 426.413 498.173C426.406 498.228 426.382 498.279 426.346 498.319C426.31 498.36 426.263 498.388 426.211 498.399C425.094 498.606 423.962 498.714 422.827 498.723ZM421.061 496.464C420.891 496.441 420.719 496.441 420.549 496.464C420.442 496.49 420.342 496.538 420.254 496.606C420.166 496.674 420.092 496.761 420.037 496.86C419.848 497.199 419.916 497.368 420.037 497.467C420.549 498.215 423.367 498.229 425.429 497.933C424.08 497.146 422.596 496.647 421.061 496.464Z" fill="#255369"/>
<path d="M426.184 498.384H426.076C424.728 497.763 422.032 495.236 422.275 493.923C422.275 493.612 422.531 493.231 423.259 493.146C423.52 493.119 423.783 493.148 424.034 493.23C424.284 493.313 424.515 493.448 424.714 493.626C426.13 494.841 426.44 497.975 426.44 498.116C426.445 498.163 426.437 498.21 426.418 498.252C426.399 498.294 426.369 498.33 426.332 498.356C426.288 498.385 426.235 498.395 426.184 498.384ZM423.488 493.655H423.272C422.8 493.655 422.773 493.909 422.76 493.965C422.639 494.756 424.445 496.789 425.806 497.594C425.686 496.27 425.178 495.017 424.351 494.008C424.103 493.794 423.795 493.675 423.474 493.669L423.488 493.655Z" fill="#255369"/>
<path d="M438.41 498.116H427.289L426.184 471.15H437.305L438.41 498.116Z" fill="#FFB573"/>
<path d="M521.568 473.522L511.256 476.487L498.059 451.2L508.371 448.235L521.568 473.522Z" fill="#FFB573"/>
<path d="M509.706 475.315L520.84 469.342C521.038 469.242 521.262 469.214 521.477 469.262C521.692 469.311 521.886 469.434 522.026 469.611L528.483 477.771C528.638 477.972 528.748 478.207 528.804 478.458C528.861 478.71 528.862 478.971 528.809 479.223C528.756 479.475 528.65 479.712 528.498 479.915C528.345 480.118 528.152 480.283 527.931 480.397C524.021 482.402 522.013 483.221 517.147 485.805C514.141 487.414 505.19 494.389 500.674 495.688C496.158 496.987 494.406 492.398 496.145 491.452C501.851 488.38 506.241 483.167 508.439 476.853C508.664 476.194 509.116 475.645 509.706 475.315Z" fill="#263238"/>
<path d="M427.316 496.775H439.448C439.668 496.776 439.88 496.854 440.052 496.998C440.223 497.141 440.343 497.341 440.392 497.566L442.589 507.929C442.645 508.179 442.645 508.439 442.59 508.689C442.534 508.939 442.425 509.173 442.27 509.372C442.115 509.571 441.919 509.73 441.696 509.837C441.473 509.944 441.23 509.997 440.985 509.99C436.604 509.919 430.268 509.651 424.809 509.651C418.366 509.651 412.812 510.018 405.263 510.018C400.693 510.018 399.426 505.175 401.34 504.738C410.035 502.747 417.139 502.535 424.661 497.679C425.449 497.127 426.368 496.814 427.316 496.775Z" fill="#263238"/>
<path d="M475.143 157.182C476.303 160.302 477.583 163.352 478.877 166.218C481.088 171.173 483.299 175.494 484.903 178.473C486.332 181.169 487.275 182.708 487.275 182.708L511.539 170.086C511.539 170.086 501.753 140.621 491.535 137.331C481.088 134.126 469.9 143.134 475.143 157.182Z" fill="#263238"/>
<path opacity="0.2" d="M485.914 160.09C483.797 161.714 482.288 166.105 481.209 171.258C482.557 174.082 483.905 176.552 484.903 178.472C486.331 181.169 487.275 182.708 487.275 182.708L490.052 181.296C489.998 174.013 488.592 166.811 485.914 160.09Z" fill="black"/>
<path d="M423.784 175.974C423.784 179.927 423.879 184.289 424.081 189.104C424.633 202.163 425.995 218.442 428.597 238.674H488.07C488.488 229.116 482.746 182.454 491.562 137.388C484.981 136.067 478.326 135.19 471.638 134.761C463.216 134.253 454.772 134.253 446.35 134.761C440.578 135.384 434.859 136.464 429.244 137.995C429.244 137.995 423.771 144.475 423.784 175.974Z" fill="#263238"/>
<path d="M439.084 157.478C438.2 159.416 437.215 161.302 436.132 163.126C435.148 164.792 434.15 166.401 433.126 167.954C431.077 171.06 428.934 174.053 426.682 176.976C422.151 182.908 417.131 188.412 411.679 193.424C408.772 196.093 405.656 198.501 402.365 200.624L401.017 201.443L400.666 201.641L400.181 201.895L399.197 202.389C397.931 203.015 396.601 203.488 395.234 203.801C392.812 204.311 390.332 204.444 387.874 204.196C383.77 203.685 379.783 202.428 376.092 200.483C374.384 199.607 372.732 198.617 371.145 197.518C369.538 196.427 368.002 195.224 366.548 193.918L371.32 185.447C377.157 187.056 383.735 188.497 388.264 187.819C389.201 187.725 390.114 187.458 390.96 187.028C391.239 186.885 391.501 186.71 391.742 186.506L391.864 186.379H391.945L392.133 186.223L392.956 185.63C395.263 183.789 397.452 181.789 399.507 179.644C403.907 174.98 408.001 170.008 411.76 164.763C413.688 162.123 415.548 159.412 417.341 156.687C418.217 155.276 419.093 153.977 419.902 152.635C420.711 151.294 421.52 149.925 421.938 149.063L439.084 157.478Z" fill="#FFB573"/>
<path d="M373.693 186.619L363.434 181.522L362.504 195.937C362.504 195.937 370.484 197.349 374.704 194.116L373.693 186.619Z" fill="#FFB573"/>
<path d="M350.507 183.979L354.457 194.963L362.504 195.937L363.434 181.522L350.507 183.979Z" fill="#FFB573"/>
<path d="M446.431 149.84C446.08 160.98 424.189 186.619 424.189 186.619L401.071 170.834C401.071 170.834 408.444 156.433 417.88 146.028C432.29 130.357 446.849 136.484 446.431 149.84Z" fill="#263238"/>
<path opacity="0.2" d="M426.184 471.15L426.75 485.057H437.885L437.318 471.15H426.184Z" fill="black"/>
<path opacity="0.2" d="M508.371 448.235L498.059 451.214L504.867 464.246L515.179 461.267L508.371 448.235Z" fill="black"/>
<path d="M467.756 98.3212C467.311 109.87 467.621 116.675 462.175 122.704C453.98 131.782 440.284 126.798 437.426 115.348C434.851 105.028 436.011 87.8735 446.7 83.045C449.052 81.9664 451.629 81.5363 454.184 81.7956C456.74 82.0548 459.19 82.9949 461.3 84.5262C463.411 86.0575 465.112 88.1291 466.242 90.5438C467.372 92.9585 467.894 95.6359 467.756 98.3212Z" fill="#FFB573"/>
<path d="M445.743 103.828C441.767 100.863 437.871 94.7496 438.181 90.2035C434.501 90.0482 432.034 83.6948 434.056 79.0639C435.323 82.0429 439.704 79.8546 441.416 77.4968C440.499 75.2237 440.648 71.454 446.943 68.7856C446.417 70.7058 446.687 73.9389 453.009 71.6094C460.679 68.7856 474.159 70.6775 470.209 80.2358C475.601 81.2664 482.624 92.9425 476.666 99.084C470.708 105.226 469.481 115.151 464.386 116.167C459.291 117.184 446.04 117.537 445.743 103.828Z" fill="#263238"/>
<path d="M466.624 79.8543C468.768 78.9199 471.15 78.7698 473.386 79.4282C475.621 80.0865 477.58 81.515 478.944 83.4828C475.066 81.5436 470.899 80.3163 466.624 79.8543Z" fill="#263238"/>
<path d="M448.642 103.334C448.531 105.899 447.617 108.355 446.04 110.322C443.937 112.892 441.632 111.395 441.16 108.36C440.742 105.635 441.335 101.004 443.95 99.5498C446.566 98.0956 448.736 100.242 448.642 103.334Z" fill="#FFB573"/>
<path d="M449.693 238.674C449.693 238.674 444.449 326.816 454.398 359.317C470.142 410.793 498.234 463.385 498.234 463.385L518.32 457.06C518.32 457.06 496.226 401.546 488.96 358.23C482.436 319.277 488.071 270.54 488.071 238.716L449.693 238.674Z" fill="#255369"/>
<path opacity="0.2" d="M448.884 258.369C454.492 256.661 458.873 257.31 460.005 262.534C462.971 276.187 454.074 312.203 449.639 328.679C447.806 304.96 448.223 276.723 448.884 258.369Z" fill="black"/>
<path d="M492.559 457.356C492.479 457.356 497.803 463.865 497.803 463.865L519.749 456.947L516.958 449.181L492.559 457.356Z" fill="#263238"/>
<path d="M428.664 238.674C428.664 238.674 411.908 313.036 410.722 348.559C409.374 388.401 422.679 482.36 422.679 482.36H441.551C441.551 482.36 443.869 387.667 444.705 351.382C445.622 311.85 467.783 238.674 467.783 238.674H428.664Z" fill="#255369"/>
<path d="M418.985 474.51C418.905 474.51 420.05 482.699 420.05 482.699H442.966L443.586 475.386L418.985 474.51Z" fill="#263238"/>
<path d="M436.914 132.037C439.475 131.105 458.9 128.521 473 129.312C481.088 129.764 485.59 130.724 488.879 132.347C492.169 133.971 486.278 142.4 483.555 143.43C484.66 146.649 478.527 150.758 475.035 152.706C473.687 155.728 459.844 158.523 451.756 152.029C445.541 147.031 429.648 134.677 436.914 132.037Z" fill="#255369"/>
</svg>
